<?xml version="1.0" encoding="utf-8"?>
<!-- Generator: Adobe Illustrator 21.0.0, SVG Export Plug-In . SVG Version: 6.00 Build 0)  -->
<svg version="1.1" id="Layer_1" xmlns="http://www.w3.org/2000/svg" xmlns:xlink="http://www.w3.org/1999/xlink" x="0px" y="0px"
	 viewBox="0 0 22 15" style="enable-background:new 0 0 22 15;" xml:space="preserve">
<style type="text/css">
	.st0{fill:#A8AAAD;}
</style>
<path id="XMLID_2_" class="st0" d="M11,0C6,0,1.7,3.1,0,7.5C1.7,11.9,6,15,11,15s9.3-3.1,11-7.5C20.3,3.1,16,0,11,0z M11,12.5
	c-2.8,0-5-2.2-5-5s2.2-5,5-5s5,2.2,5,5S13.8,12.5,11,12.5z M11,4.5c-1.7,0-3,1.3-3,3s1.3,3,3,3s3-1.3,3-3S12.7,4.5,11,4.5z"/>
</svg>
